<svg version="1.1" id="Layer_1" xmlns="http://www.w3.org/2000/svg" xmlns:xlink="http://www.w3.org/1999/xlink" x="0px" y="0px" viewBox="-181.3 -88 591.5 168" style="enable-background:new -181.3 -88 591.5 168;" xml:space="preserve">
 <style type="text/css">
  .st0{fill:#C3C6CC;}
	.st1{fill:#E1E3E6;}
	.st2{fill:#262933;}
 </style>
 <g transform="translate(-34 -36)">
  <path class="st0" d="M19.2,107.2l-31.6-31.6c-2.1-2-5.4-2-7.5,0l-31.6,31.6c-2.1,2-2.1,5.2-0.2,7.3c1,1.1,2.4,1.6,3.9,1.6h63.3
		c2.8,0.1,5.2-2.2,5.3-5C20.7,109.5,20.2,108.2,19.2,107.2z">
  </path>
  <path class="st1" d="M20.2-6.5l-9.9-29.4c-0.4-1.3-1.2-2.6-2.1-3.6l-154.3,154.3c0.9,0.8,2.1,1.2,3.3,1.2h43.8c2.5,0,4.8-1,6.6-2.7
		L18.1,2.8C20.6,0.4,21.4-3.2,20.2-6.5z">
  </path>
  <path class="st0" d="M4.6-41.6l-29.4-9.9c-3.2-1.2-6.9-0.4-9.3,2.1L-144.6,61.1c-1.7,1.8-2.7,4.1-2.7,6.6v43.8
		c0,1.2,0.4,2.4,1.2,3.3L8.2-39.5C7.2-40.4,5.9-41.1,4.6-41.6z">
  </path>
  <path class="st2" d="M426.4,29.6c0.1,1.7-0.3,3.4-1.2,4.9c-0.8,1.2-1.8,2.1-3.1,2.6c-1.4,0.6-2.9,1-4.4,1c-1.6,0.1-3.3,0.2-4.9,0.2
		h-5.7V21h6.3c1.5,0,3,0.1,4.5,0.2c1.4,0.1,2.9,0.5,4.2,1.1c1.2,0.6,2.3,1.5,3,2.6C426.1,26.4,426.5,28,426.4,29.6L426.4,29.6z
		 M428.5,74h15.7l-8.6-12.7c-1.5-2.2-3-4.3-4.5-6.3c-1.5-2-2.8-3.7-3.8-5c-0.7-1.2-1.7-2.2-2.8-3c4.3-0.3,8.2-2.3,11.1-5.4
		c3-3.3,4.5-7.7,4.4-12.2c0.1-5.4-2.3-10.6-6.5-14c-2.2-1.7-4.7-2.9-7.4-3.4c-3.5-0.7-7.1-1-10.6-1h-21.2v63h12.9V47.8
		c1.3-0.1,2.5,0.3,3.6,0.9c0.9,0.6,1.8,1.4,2.6,2.2c1.1,1.4,2.2,2.9,3.2,4.4c1.3,1.9,3.2,4.8,5.6,8.6L428.5,74z M319.1,74h40.5V63.1
		h-27.3V46.3h20.5V35.9h-20.6V21.4h24.7l1.9-10.4h-39.6V74z M268.3,74l24.5-63h-13.6l-12.4,32.7c-0.6,1.5-1.1,3-1.6,4.5
		c-0.5,1.7-1,3.3-1.3,4.8c-0.4,1.5-0.7,2.8-0.9,3.8l-0.3,1.5l-0.5-1.5c-0.2-1.1-0.5-2.4-0.9-3.9c-0.4-1.5-0.8-3.1-1.3-4.8
		c-0.5-1.7-1-3.2-1.5-4.5L246.9,11h-14.4l24.1,63L268.3,74z M166,74h40.5V63.1h-27.3V46.3h20.5V35.9H179V21.4h24.7l1.9-10.4H166
		L166,74z M130.5,74l2.4-10.7h-25.6V11H94.2v63H130.5z">
  </path>
 </g>
</svg>